# xmcd CD database file
#
# Track frame offsets:
#	150
#	13543
#	32507
#	49487
#	67097
#	79045
#	96535
#	113147
#	129630
#	145861
#	164070
#	180059
#	194800
#	212482
#	231928
#	247704
#	260767
#	282090
#	295491
#	308305
#
# Disc length: 4360 seconds
#
# Revision: 0
# Processed by: cddbd v1.5.2PL0 Copyright (c) Steve Scherf et al.
# Submitted via: CDex 1.51
#
DISCID=24110614
DTITLE=Kenny Rogers - The Best of - Disc 2 of 2
DYEAR=2005
DGENRE=Country
TTITLE0=Ruby, Don't Take Your Love To Town
TTITLE1=She Believes In Me
TTITLE2=Desperado
TTITLE3=Lay Down Beside Me
TTITLE4=Blaze Of Glory
TTITLE5=Lady
TTITLE6=You Decorated My Life
TTITLE7=Love Will Turn Yu Around
TTITLE8=I Don't Need You
TTITLE9=While The Feeling's Good
TTITLE10=Just The Way You Are (feat. Dottie West)
TTITLE11=A Love Song
TTITLE12=Scarlet Fever
TTITLE13=Long Arm Of The Law
TTITLE14=Share Your Love With Me
TTITLE15=Love Or Something Like It
TTITLE16=Through The Years
TTITLE17=Puttin' In Overtime At Home
TTITLE18=Laura (What's He Got That I Ain't Got)
TTITLE19=You've Lost That Lovin' Feelin' (feat. Dottie West)
EXTD=YEAR: 2005
EXTT0=
EXTT1=
EXTT2=
EXTT3=
EXTT4=
EXTT5=
EXTT6=
EXTT7=
EXTT8=
EXTT9=
EXTT10=
EXTT11=
EXTT12=
EXTT13=
EXTT14=
EXTT15=
EXTT16=
EXTT17=
EXTT18=
EXTT19=
PLAYORDER=
